<mxfile host="app.diagrams.net" modified="2024-02-13T18:13:57.362Z" agent="Mozilla/5.0 (Windows NT 10.0; Win64; x64) AppleWebKit/537.36 (KHTML, like Gecko) Chrome/121.0.0.0 Safari/537.36" etag="J2Y7nn5ShoqFgDtiaR6l" version="23.1.4" type="device">
  <diagram name="Page-1" id="9Q1l9bm9yTWAZIglX366">
    <mxGraphModel dx="988" dy="546" grid="1" gridSize="10" guides="1" tooltips="1" connect="1" arrows="1" fold="1" page="1" pageScale="1" pageWidth="850" pageHeight="1100" math="0" shadow="0">
      <root>
        <mxCell id="0" />
        <mxCell id="1" parent="0" />
        <mxCell id="SWKIedDhZWT-HBdvp5V9-18" value="Webseite öffnen" style="rounded=1;whiteSpace=wrap;html=1;" vertex="1" parent="1">
          <mxGeometry x="240" y="80" width="120" height="60" as="geometry" />
        </mxCell>
        <mxCell id="SWKIedDhZWT-HBdvp5V9-19" value="Knopf &quot;Mit Github fortfahren&quot; auswählen" style="rounded=1;whiteSpace=wrap;html=1;" vertex="1" parent="1">
          <mxGeometry x="240" y="200" width="120" height="60" as="geometry" />
        </mxCell>
        <mxCell id="SWKIedDhZWT-HBdvp5V9-20" value="" style="endArrow=classic;html=1;rounded=0;" edge="1" parent="1" source="SWKIedDhZWT-HBdvp5V9-18" target="SWKIedDhZWT-HBdvp5V9-19">
          <mxGeometry width="50" height="50" relative="1" as="geometry">
            <mxPoint x="290" y="150" as="sourcePoint" />
            <mxPoint x="330" y="210" as="targetPoint" />
          </mxGeometry>
        </mxCell>
        <mxCell id="SWKIedDhZWT-HBdvp5V9-21" value="Beim Identitätsanbieter verifizieren" style="rounded=1;whiteSpace=wrap;html=1;" vertex="1" parent="1">
          <mxGeometry x="240" y="320" width="120" height="60" as="geometry" />
        </mxCell>
        <mxCell id="SWKIedDhZWT-HBdvp5V9-22" value="Zurück zu AnoAsked" style="rounded=1;whiteSpace=wrap;html=1;" vertex="1" parent="1">
          <mxGeometry x="240" y="440" width="120" height="60" as="geometry" />
        </mxCell>
        <mxCell id="SWKIedDhZWT-HBdvp5V9-23" value="" style="endArrow=classic;html=1;rounded=0;" edge="1" parent="1" source="SWKIedDhZWT-HBdvp5V9-19" target="SWKIedDhZWT-HBdvp5V9-21">
          <mxGeometry width="50" height="50" relative="1" as="geometry">
            <mxPoint x="440" y="300" as="sourcePoint" />
            <mxPoint x="400" y="360" as="targetPoint" />
          </mxGeometry>
        </mxCell>
        <mxCell id="SWKIedDhZWT-HBdvp5V9-24" value="" style="endArrow=classic;html=1;rounded=0;" edge="1" parent="1" source="SWKIedDhZWT-HBdvp5V9-21" target="SWKIedDhZWT-HBdvp5V9-22">
          <mxGeometry width="50" height="50" relative="1" as="geometry">
            <mxPoint x="410" y="410" as="sourcePoint" />
            <mxPoint x="410" y="470" as="targetPoint" />
          </mxGeometry>
        </mxCell>
      </root>
    </mxGraphModel>
  </diagram>
</mxfile>
